<svg id="Layer_1" height="512" fill = "#ffb199" viewBox="0 0 512 512" width="512" xmlns="http://www.w3.org/2000/svg" data-name="Layer 1"><path d="m212.129 283.32a22.624 22.624 0 0 1 -5.321-6.912l-9.765 54.083 49.462-17.011z"/><path d="m214.425 245.072v21.259a12.607 12.607 0 0 0 4.3 9.472l37.281 32.709 37.43-32.713a12.6 12.6 0 0 0 4.317-9.487v-20.689a84.784 84.784 0 0 1 -83.328-.551z"/><path d="m270.775 348.746 7.107-20.135-21.911-7.811-21.946 7.548 7.2 20.398z"/><path d="m337.679 272.563a5 5 0 0 1 6.388-3l.723.259a88.5 88.5 0 0 0 1.81-24.96l-2.017-29.136c-.212-3.061-.319-6.169-.319-9.239v-27.943l-3.356 2.741q-.112 1.109-.264 2.208a84.147 84.147 0 0 1 -32.891 55.622v22.178l28.521 15.151z"/><path d="m330.737 182.124a55.717 55.717 0 0 0 -.092-15.474l-3.677-25.856a23.806 23.806 0 0 1 -6.173.828h-125.59a23.922 23.922 0 0 1 -8.72-1.66l-3.807 26.78a53.963 53.963 0 0 0 -.282 13.79 74.578 74.578 0 0 0 74.272 65.761c37.171 0 69.014-27.587 74.069-64.169z"/><path d="m305.315 276.5a22.6 22.6 0 0 1 -5.3 6.828l-34.585 30.228 47.542 16.949z"/><path d="m358.771 285.454-13.386-4.8-5.517 15.246 13.386 4.8z"/><path d="m340.91 168.372 2.789-2.279a16.228 16.228 0 0 0 4.826-18.712c-1.927-4.784-6.869-7.978-11.844-9.318l3.864 27.179c.148 1.046.264 2.089.365 3.13z"/><path d="m368.183 288.829-5.517 15.246 19.951 7.154 5.517-15.246z"/><path d="m397.547 299.358-5.517 15.246 12.301 4.411 5.517-15.246z"/><path d="m173.421 127.787-1.317-2.8.286 4.025c.476-.15.952-.3 1.439-.43-.137-.267-.281-.525-.408-.795z"/><path d="m182.472 123.535a14.123 14.123 0 0 0 12.733 8.087h125.595a14.123 14.123 0 0 0 12.733-8.087l3.246-7.038h-157.614z"/><path d="m174.321 272.563 1.822 5.035 28.282-13.865v-25.368a83.994 83.994 0 0 1 -31.963-56.678c0-.036-.006-.072-.011-.108l-1.289-1.053v26.934c0 2.51-.088 5.041-.26 7.524l-2.067 29.872a88.489 88.489 0 0 0 1.713 24.517 4.973 4.973 0 0 1 3.773 3.19z"/><path d="m164.81 147.655a16.224 16.224 0 0 0 4.827 18.711l2.757 2.253c.1-1.088.227-2.182.383-3.285l3.852-27.094c-4.929 1.25-9.81 4.425-11.819 9.415z"/><path d="m67.874 440.337h63.662v57.409h-63.662z"/><path d="m414.439 320.468-2.4 6.637a5 5 0 0 1 -6.389 3.006l-73.876-26.49a5 5 0 0 1 -3.013-6.408l4.1-11.321-17.381-8.978 8.56 60.376a5 5 0 0 1 -6.64 5.41l-30.1-10.733-8.274 23.441a4.985 4.985 0 0 1 -3.548 3.183l19.126 139.153h75.859v-62.407a5 5 0 0 1 5-5h68.662v-45.6a84.911 84.911 0 0 0 -29.686-64.269z"/><path d="m120.586 314.383-5.517-15.246-12.917 4.632 5.517 15.246z"/><path d="m380.464 440.337h63.662v57.409h-63.662z"/><path d="m232.973 355.41-8.4-23.81-32.335 11.121a5 5 0 0 1 -6.546-5.617l10.482-58.065-16.615 7.987 3.686 10.187a5 5 0 0 1 -3.013 6.408l-73.876 26.49a5 5 0 0 1 -6.389-3.006l-2.4-6.637a84.911 84.911 0 0 0 -29.693 64.272v45.6h68.662a5 5 0 0 1 5 5v62.409h75.864l19.126-139.153a4.985 4.985 0 0 1 -3.553-3.186zm-65.973 124.896a5 5 0 1 1 -10 0v-49.979a5 5 0 0 1 10 0zm0-73.239a5 5 0 0 1 -10 0v-6.907a5 5 0 0 1 10 0z"/><path d="m246.593 358.746-19.105 139h57.024l-19.105-139z"/><path d="m340.7 39.742c-.407-.284-.823-.561-1.244-.832-25.808-16.552-53.922-24.862-83.424-24.65-29.61-.147-57.683 8.1-83.5 24.654-.415.267-.831.544-1.238.828-13.261 9.23-18.452 26.536-12.628 42.088l9.244 24.67h176.18l9.239-24.669c5.824-15.555.633-32.861-12.629-42.089zm-86.22 55.738a23.733 23.733 0 1 1 23.737-23.732 23.761 23.761 0 0 1 -23.737 23.732z"/><path d="m144.432 288.608-19.951 7.154 5.517 15.246 19.951-7.154z"/><path d="m254.48 58.015a13.733 13.733 0 1 0 13.737 13.733 13.75 13.75 0 0 0 -13.737-13.733z"/><path d="m159.361 300.479 12.771-4.579-5.517-15.246-12.77 4.579z"/></svg>